<svg width="166" height="106" viewBox="0 0 166 106" fill="none" xmlns="http://www.w3.org/2000/svg">
<path d="M5.69531 102H3.60156V95.2969C3.60156 94.5677 3.63802 93.7292 3.71094 92.7812C3.67448 92.8333 3.53906 92.9922 3.30469 93.2578C3.07552 93.5234 2.625 94 1.95312 94.6875L0.765625 93.3906L3.80469 90.5781H5.69531V102ZM8.78438 97.1484C8.78438 94.8203 9.14635 93.1198 9.87031 92.0469C10.5943 90.9688 11.6984 90.4297 13.1828 90.4297C13.4172 90.4297 13.6516 90.4453 13.8859 90.4766C14.1203 90.5026 14.2974 90.5312 14.4172 90.5625V92.3203C14.0578 92.237 13.7036 92.1953 13.3547 92.1953C12.7609 92.1953 12.274 92.3255 11.8938 92.5859C11.5135 92.8464 11.2245 93.237 11.0266 93.7578C10.8286 94.2734 10.7089 95 10.6672 95.9375H10.7531C10.9354 95.5052 11.1854 95.1797 11.5031 94.9609C11.8208 94.737 12.188 94.625 12.6047 94.625C13.3703 94.625 13.9667 94.9375 14.3938 95.5625C14.8208 96.1823 15.0344 97.0703 15.0344 98.2266C15.0344 99.4349 14.7531 100.393 14.1906 101.102C13.6281 101.805 12.8651 102.156 11.9016 102.156C10.8807 102.156 10.1047 101.734 9.57344 100.891C9.0474 100.047 8.78438 98.7995 8.78438 97.1484ZM11.9172 100.367C12.2297 100.367 12.4797 100.195 12.6672 99.8516C12.8599 99.5078 12.9563 98.9714 12.9563 98.2422C12.9563 97.6536 12.8703 97.1901 12.6984 96.8516C12.5318 96.5078 12.2766 96.3359 11.9328 96.3359C11.6255 96.3359 11.3755 96.4948 11.1828 96.8125C10.9901 97.1302 10.8938 97.5312 10.8938 98.0156C10.8938 98.776 10.9823 99.3594 11.1594 99.7656C11.3417 100.167 11.5943 100.367 11.9172 100.367ZM23.2406 96.2891C23.2406 98.3568 22.9906 99.8516 22.4906 100.773C21.9958 101.695 21.1964 102.156 20.0922 102.156C18.988 102.156 18.1938 101.693 17.7094 100.766C17.2302 99.8385 16.9906 98.3464 16.9906 96.2891C16.9906 94.2266 17.2432 92.7292 17.7484 91.7969C18.2536 90.8646 19.0453 90.3984 20.1234 90.3984C21.2224 90.3984 22.0167 90.8542 22.5063 91.7656C22.9958 92.6771 23.2406 94.1849 23.2406 96.2891ZM19.1156 96.2891C19.1156 97.888 19.1833 98.9661 19.3188 99.5234C19.4594 100.076 19.7224 100.352 20.1078 100.352C20.3682 100.352 20.5688 100.232 20.7094 99.9922C20.8552 99.7526 20.9594 99.3568 21.0219 98.8047C21.0844 98.2474 21.1156 97.4089 21.1156 96.2891C21.1156 94.7161 21.0427 93.6432 20.8969 93.0703C20.751 92.4974 20.488 92.2109 20.1078 92.2109C19.7224 92.2109 19.4594 92.4974 19.3188 93.0703C19.1833 93.638 19.1156 94.7109 19.1156 96.2891ZM31.4469 96.2891C31.4469 98.3568 31.1969 99.8516 30.6969 100.773C30.2021 101.695 29.4026 102.156 28.2984 102.156C27.1943 102.156 26.4 101.693 25.9156 100.766C25.4365 99.8385 25.1969 98.3464 25.1969 96.2891C25.1969 94.2266 25.4495 92.7292 25.9547 91.7969C26.4599 90.8646 27.2516 90.3984 28.3297 90.3984C29.4286 90.3984 30.2229 90.8542 30.7125 91.7656C31.2021 92.6771 31.4469 94.1849 31.4469 96.2891ZM27.3219 96.2891C27.3219 97.888 27.3896 98.9661 27.525 99.5234C27.6656 100.076 27.9286 100.352 28.3141 100.352C28.5745 100.352 28.775 100.232 28.9156 99.9922C29.0615 99.7526 29.1656 99.3568 29.2281 98.8047C29.2906 98.2474 29.3219 97.4089 29.3219 96.2891C29.3219 94.7161 29.249 93.6432 29.1031 93.0703C28.9573 92.4974 28.6943 92.2109 28.3141 92.2109C27.9286 92.2109 27.6656 92.4974 27.525 93.0703C27.3896 93.638 27.3219 94.7109 27.3219 96.2891Z" fill="#D1A954"/>
<path d="M44.9844 93.2969V102H42.8906V94.9766H40.5391V102H38.4609V93.2969H44.9844ZM54.0031 97.6328C54.0031 99.0599 53.701 100.172 53.0969 100.969C52.4927 101.76 51.6646 102.156 50.6125 102.156C49.9458 102.156 49.3573 101.974 48.8469 101.609C48.3365 101.245 47.9432 100.721 47.6672 100.039C47.3911 99.3516 47.2531 98.5495 47.2531 97.6328C47.2531 96.2214 47.5526 95.1198 48.1516 94.3281C48.7505 93.5312 49.5812 93.1328 50.6437 93.1328C51.6698 93.1328 52.4849 93.5391 53.0891 94.3516C53.6984 95.1589 54.0031 96.2526 54.0031 97.6328ZM49.3781 97.6328C49.3781 98.5391 49.4771 99.224 49.675 99.6875C49.8729 100.151 50.1906 100.383 50.6281 100.383C51.4615 100.383 51.8781 99.4661 51.8781 97.6328C51.8781 96.7214 51.7766 96.0417 51.5734 95.5938C51.3755 95.1406 51.0604 94.9141 50.6281 94.9141C50.1906 94.9141 49.8729 95.1406 49.675 95.5938C49.4771 96.0417 49.3781 96.7214 49.3781 97.6328ZM59.1391 102.156C58.1026 102.156 57.3135 101.779 56.7719 101.023C56.2302 100.268 55.9594 99.1589 55.9594 97.6953C55.9594 96.1641 56.2146 95.0208 56.725 94.2656C57.2406 93.5104 58.0349 93.1328 59.1078 93.1328C59.4307 93.1328 59.7693 93.1797 60.1234 93.2734C60.4776 93.3672 60.7953 93.5026 61.0766 93.6797L60.4828 95.2969C60.0505 95.0417 59.6677 94.9141 59.3344 94.9141C58.8917 94.9141 58.5714 95.1458 58.3734 95.6094C58.1807 96.0677 58.0844 96.7578 58.0844 97.6797C58.0844 98.5807 58.1807 99.2552 58.3734 99.7031C58.5661 100.146 58.8812 100.367 59.3187 100.367C59.8396 100.367 60.3839 100.185 60.9516 99.8203V101.648C60.4047 101.987 59.8005 102.156 59.1391 102.156ZM67.2672 102L66.8531 100.812H66.8063C66.499 101.323 66.1813 101.674 65.8531 101.867C65.525 102.06 65.1109 102.156 64.6109 102.156C63.9703 102.156 63.4651 101.917 63.0953 101.438C62.7307 100.958 62.5484 100.292 62.5484 99.4375C62.5484 98.5208 62.7984 97.8411 63.2984 97.3984C63.8036 96.9505 64.5563 96.7031 65.5563 96.6562L66.7125 96.6094V95.9844C66.7125 95.1719 66.3609 94.7656 65.6578 94.7656C65.137 94.7656 64.538 94.9688 63.8609 95.375L63.1422 93.9375C64.0068 93.3906 64.9469 93.1172 65.9625 93.1172C66.8844 93.1172 67.5849 93.3828 68.0641 93.9141C68.5484 94.4401 68.7906 95.1875 68.7906 96.1562V102H67.2672ZM65.4625 100.531C65.8427 100.531 66.1448 100.362 66.3688 100.023C66.5979 99.6797 66.7125 99.224 66.7125 98.6562V97.9219L66.0719 97.9531C65.5979 97.9792 65.249 98.1146 65.025 98.3594C64.8063 98.6042 64.6969 98.9688 64.6969 99.4531C64.6969 100.172 64.9521 100.531 65.4625 100.531ZM75.4734 100.367V94.9453H74.45C74.2521 97.1953 73.8745 99.0026 73.3172 100.367H75.4734ZM78.7078 105.102H76.6453V102H72.6766V105.102H70.6141V100.367H71.1375C71.5542 99.5286 71.8849 98.5026 72.1297 97.2891C72.3745 96.0755 72.5307 94.7448 72.5984 93.2969H77.575V100.367H78.7078V105.102ZM87.0625 97.6328C87.0625 99.0599 86.7604 100.172 86.1562 100.969C85.5521 101.76 84.724 102.156 83.6719 102.156C83.0052 102.156 82.4167 101.974 81.9062 101.609C81.3958 101.245 81.0026 100.721 80.7266 100.039C80.4505 99.3516 80.3125 98.5495 80.3125 97.6328C80.3125 96.2214 80.612 95.1198 81.2109 94.3281C81.8099 93.5312 82.6406 93.1328 83.7031 93.1328C84.7292 93.1328 85.5443 93.5391 86.1484 94.3516C86.7578 95.1589 87.0625 96.2526 87.0625 97.6328ZM82.4375 97.6328C82.4375 98.5391 82.5365 99.224 82.7344 99.6875C82.9323 100.151 83.25 100.383 83.6875 100.383C84.5208 100.383 84.9375 99.4661 84.9375 97.6328C84.9375 96.7214 84.8359 96.0417 84.6328 95.5938C84.4349 95.1406 84.1198 94.9141 83.6875 94.9141C83.25 94.9141 82.9323 95.1406 82.7344 95.5938C82.5365 96.0417 82.4375 96.7214 82.4375 97.6328ZM91.3234 93.2969V96.5312C91.3234 96.9323 91.3885 97.224 91.5188 97.4062C91.649 97.5885 91.8547 97.6797 92.1359 97.6797C92.4276 97.6797 92.6828 97.6198 92.9016 97.5C93.1255 97.3802 93.3495 97.2318 93.5734 97.0547V93.2969H95.675V102H93.5734V98.4766C92.8547 99.0339 92.1359 99.3125 91.4172 99.3125C90.7036 99.3125 90.162 99.0938 89.7922 98.6562C89.4224 98.2188 89.2375 97.5677 89.2375 96.7031V93.2969H91.3234ZM100.295 93.2969V96.6875H102.647V93.2969H104.741V102H102.647V98.3516H100.295V102H98.2172V93.2969H100.295ZM109.377 96.7031H110.002C111.153 96.7031 112.002 96.9141 112.548 97.3359C113.101 97.7578 113.377 98.3958 113.377 99.25C113.377 101.083 112.231 102 109.939 102H107.298V93.2969H109.377V96.7031ZM111.244 99.2969C111.244 98.9271 111.129 98.6615 110.9 98.5C110.676 98.3385 110.322 98.2578 109.838 98.2578H109.377V100.445H109.869C110.311 100.445 110.65 100.359 110.884 100.188C111.124 100.01 111.244 99.7135 111.244 99.2969ZM116.689 102H114.595V93.2969H116.689V102ZM121.169 93.2969V97.3281C121.169 97.8281 121.106 98.6589 120.981 99.8203L123.809 93.2969H126.356V102H124.419V97.9062C124.419 97.2917 124.479 96.4635 124.598 95.4219L121.762 102H119.239V93.2969H121.169ZM125.645 89.7734C125.541 90.6484 125.255 91.2891 124.786 91.6953C124.322 92.1016 123.637 92.3047 122.731 92.3047C121.846 92.3047 121.182 92.1068 120.739 91.7109C120.296 91.3099 120.033 90.6641 119.95 89.7734H121.677C121.734 90.2943 121.843 90.6458 122.005 90.8281C122.171 91.0104 122.429 91.1016 122.778 91.1016C123.122 91.1016 123.377 90.9974 123.544 90.7891C123.716 90.5807 123.83 90.2422 123.887 89.7734H125.645ZM142.675 102H140.816V94.9297C140.665 95.7734 140.451 96.7214 140.175 97.7734L139.042 102H137.277L136.144 97.7578C135.899 96.8464 135.685 95.9036 135.503 94.9297V102H133.683V93.2969H136.675L137.73 97.3594C137.959 98.2656 138.097 99.1094 138.144 99.8906C138.165 99.625 138.219 99.2526 138.308 98.7734C138.402 98.2943 138.506 97.8229 138.62 97.3594L139.698 93.2969H142.675V102ZM148.428 102.156C147.34 102.156 146.48 101.771 145.85 101C145.225 100.224 144.913 99.1276 144.913 97.7109C144.913 96.2734 145.196 95.151 145.764 94.3438C146.332 93.5365 147.123 93.1328 148.139 93.1328C149.087 93.1328 149.834 93.4792 150.381 94.1719C150.928 94.8594 151.202 95.8255 151.202 97.0703V98.1797H147.022C147.038 98.9557 147.196 99.5339 147.498 99.9141C147.801 100.289 148.217 100.477 148.748 100.477C149.426 100.477 150.118 100.266 150.827 99.8438V101.555C150.16 101.956 149.36 102.156 148.428 102.156ZM148.123 94.7344C147.827 94.7344 147.582 94.8932 147.389 95.2109C147.196 95.5234 147.084 96.0104 147.053 96.6719H149.163C149.152 96.0365 149.056 95.5547 148.873 95.2266C148.691 94.8984 148.441 94.7344 148.123 94.7344ZM156.252 102.156C155.215 102.156 154.426 101.779 153.884 101.023C153.343 100.268 153.072 99.1589 153.072 97.6953C153.072 96.1641 153.327 95.0208 153.837 94.2656C154.353 93.5104 155.147 93.1328 156.22 93.1328C156.543 93.1328 156.882 93.1797 157.236 93.2734C157.59 93.3672 157.908 93.5026 158.189 93.6797L157.595 95.2969C157.163 95.0417 156.78 94.9141 156.447 94.9141C156.004 94.9141 155.684 95.1458 155.486 95.6094C155.293 96.0677 155.197 96.7578 155.197 97.6797C155.197 98.5807 155.293 99.2552 155.486 99.7031C155.679 100.146 155.994 100.367 156.431 100.367C156.952 100.367 157.496 100.185 158.064 99.8203V101.648C157.517 101.987 156.913 102.156 156.252 102.156ZM165.473 93.2969V94.9766H163.536V102H161.458V94.9766H159.52V93.2969H165.473Z" fill="white"/>
<path d="M27.6674 12.5379H26.7231V11.5936C26.7231 11.027 26.2638 10.5677 25.6971 10.5677C25.1304 10.5677 24.6712 11.027 24.6712 11.5936V12.5379H23.7269C23.1602 12.5379 22.7009 12.9973 22.7009 13.5639C22.7009 14.1304 23.1602 14.5898 23.7269 14.5898H24.6712V15.5343C24.6712 16.1008 25.1304 16.5602 25.6971 16.5602C26.2638 16.5602 26.7231 16.1008 26.7231 15.5343V14.5898H27.6674C28.2341 14.5898 28.6933 14.1304 28.6933 13.5639C28.6933 12.9973 28.2341 12.5379 27.6674 12.5379Z" fill="white"/>
<path d="M46.2719 12.5379H45.3276V11.5936C45.3276 11.027 44.8683 10.5677 44.3016 10.5677C43.7349 10.5677 43.2757 11.027 43.2757 11.5936V12.5379H42.3314C41.7647 12.5379 41.3054 12.9973 41.3054 13.5639C41.3054 14.1304 41.7647 14.5898 42.3314 14.5898H43.2757V15.5343C43.2757 16.1008 43.7349 16.5602 44.3016 16.5602C44.8683 16.5602 45.3276 16.1008 45.3276 15.5343V14.5898H46.2719C46.8386 14.5898 47.2978 14.1304 47.2978 13.5639C47.2978 12.9973 46.8386 12.5379 46.2719 12.5379Z" fill="white"/>
<path d="M27.6674 26.6295H26.7231V25.6852C26.7231 25.1186 26.2638 24.6592 25.6971 24.6592C25.1304 24.6592 24.6712 25.1186 24.6712 25.6852V26.6295H23.7269C23.1602 26.6295 22.7009 27.0889 22.7009 27.6555C22.7009 28.222 23.1602 28.6814 23.7269 28.6814H24.6712V29.6257C24.6712 30.1923 25.1304 30.6517 25.6971 30.6517C26.2638 30.6517 26.7231 30.1923 26.7231 29.6257V28.6814H27.6674C28.2341 28.6814 28.6933 28.222 28.6933 27.6555C28.6933 27.0889 28.2341 26.6295 27.6674 26.6295Z" fill="white"/>
<path d="M46.2719 26.6295H45.3276V25.6852C45.3276 25.1186 44.8683 24.6592 44.3016 24.6592C43.7349 24.6592 43.2757 25.1186 43.2757 25.6852V26.6295H42.3314C41.7647 26.6295 41.3054 27.0889 41.3054 27.6555C41.3054 28.222 41.7647 28.6814 42.3314 28.6814H43.2757V29.6257C43.2757 30.1923 43.7349 30.6517 44.3016 30.6517C44.8683 30.6517 45.3276 30.1923 45.3276 29.6257V28.6814H46.2719C46.8386 28.6814 47.2978 28.222 47.2978 27.6555C47.2978 27.0889 46.8386 26.6295 46.2719 26.6295Z" fill="white"/>
<path d="M63.4561 29.0518H49.8792C48.7194 29.0518 47.7758 29.9953 47.7758 31.1551V33.9326C47.7758 35.0924 48.7193 36.0359 49.8792 36.0359H50.0765V40.68C49.1632 39.9606 48.0126 39.5296 46.7626 39.5296H22.9676C21.7176 39.5296 20.5669 39.9604 19.6538 40.68V36.0259H20.121C21.2808 36.0259 22.2244 35.0824 22.2244 33.9227V31.1451C22.2244 29.9853 21.2809 29.0418 20.121 29.0418H6.54409C5.38431 29.0418 4.44067 29.9853 4.44067 31.1451V33.9227C4.44067 35.0824 5.38417 36.0259 6.54409 36.0259H7.01126V49.1205C7.01126 51.2153 8.62468 52.9395 10.6741 53.1181V55.1644C10.6741 56.7895 11.9963 58.1115 13.6214 58.1115H15.9724V67.9481H14.5035C13.9368 67.9481 13.4775 68.4074 13.4775 68.974C13.4775 69.5406 13.9368 69.9999 14.5035 69.9999H24.7547C25.3214 69.9999 25.7806 69.5406 25.7806 68.974C25.7806 68.4074 25.3214 67.9481 24.7547 67.9481H23.2857V58.1115H46.4447V67.9481H44.9758C44.4091 67.9481 43.9499 68.4074 43.9499 68.974C43.9499 69.5406 44.4091 69.9999 44.9758 69.9999H55.2271C55.7938 69.9999 56.2531 69.5406 56.2531 68.974C56.2531 68.4074 55.7938 67.9481 55.2271 67.9481H53.7581V58.1115H56.1092C57.7343 58.1115 59.0563 56.7895 59.0563 55.1644V53.1181C61.1058 52.9396 62.7192 51.2153 62.7192 49.1205V36.0359H63.4564C64.6162 36.0359 65.5598 35.0924 65.5598 33.9326V31.1551C65.5595 29.9954 64.616 29.0518 63.4561 29.0518ZM22.9676 41.5818H46.7627C48.5901 41.5818 50.0766 43.0683 50.0766 44.8957V51.0825H19.6537V44.8957C19.6537 43.0683 21.1403 41.5818 22.9676 41.5818ZM6.54409 33.9741C6.51579 33.9741 6.49269 33.951 6.49269 33.9227V31.1451C6.49269 31.1168 6.51579 31.0937 6.54409 31.0937H20.121C20.1493 31.0937 20.1724 31.1168 20.1724 31.1451V33.9227C20.1724 33.951 20.1493 33.9741 20.121 33.9741H6.54409ZM11.0252 51.0827C9.94334 51.0825 9.06314 50.2023 9.06314 49.1206V36.0261H17.6018V51.0827H11.0252ZM21.2337 67.9481H18.0244V58.1117H21.2337V67.9481ZM51.7059 67.9481H48.4966V58.1117H51.7059V67.9481ZM57.0042 55.1644C57.0042 55.6581 56.6026 56.0597 56.1091 56.0597H13.6214C13.1277 56.0597 12.726 55.6581 12.726 55.1644V53.1344H57.0042V55.1644ZM60.667 49.1206C60.667 50.2025 59.7868 51.0825 58.705 51.0825H52.1285V36.0361H60.667V49.1206ZM63.5076 33.9328C63.5076 33.9611 63.4845 33.9842 63.4562 33.9842H49.8794C49.8511 33.9842 49.8279 33.9611 49.8279 33.9328V31.1552C49.8279 31.1269 49.8511 31.1038 49.8794 31.1038H63.4562C63.4845 31.1038 63.5076 31.1269 63.5076 31.1552V33.9328Z" fill="white"/>
<path d="M57.6955 8.45511C57.6958 3.793 53.9028 0 49.2407 0H20.4864C15.8241 0 12.0312 3.793 12.0312 8.45511V25.269C12.0314 25.8357 12.4906 26.2949 13.0573 26.2949C13.624 26.2949 14.0833 25.8355 14.0833 25.269V8.45511C14.0833 4.92435 16.9557 2.05188 20.4864 2.05188H49.2406C52.7712 2.05188 55.6437 4.92435 55.6437 8.4599L55.7231 25.2737C55.7258 25.8387 56.1845 26.2949 56.7489 26.2949C56.7505 26.2949 56.7522 26.2949 56.7538 26.2949C57.3205 26.2922 57.7777 25.8307 57.775 25.264L57.6955 8.45511Z" fill="white"/>
</svg>
