<svg width="119" height="106" viewBox="0 0 119 106" fill="none" xmlns="http://www.w3.org/2000/svg">
<path d="M6.47656 93.1484C6.47656 93.8672 6.29948 94.4714 5.94531 94.9609C5.59115 95.4453 5.09115 95.7812 4.44531 95.9688V96.0312C5.16406 96.1458 5.71875 96.4271 6.10938 96.875C6.50521 97.3229 6.70312 97.9323 6.70312 98.7031C6.70312 99.7552 6.375 100.594 5.71875 101.219C5.06771 101.844 4.17448 102.156 3.03906 102.156C2.02865 102.156 1.17969 101.977 0.492188 101.617V99.7109C0.835938 99.9193 1.20833 100.083 1.60938 100.203C2.01042 100.323 2.39583 100.383 2.76562 100.383C3.36979 100.383 3.82552 100.245 4.13281 99.9688C4.4401 99.6875 4.59375 99.2448 4.59375 98.6406C4.59375 97.5 3.89323 96.9297 2.49219 96.9297H1.84375V95.3438H2.46094C3.08073 95.3438 3.55469 95.1979 3.88281 94.9062C4.21615 94.6146 4.38281 94.1797 4.38281 93.6016C4.38281 93.1484 4.27604 92.8073 4.0625 92.5781C3.85417 92.3438 3.55729 92.2266 3.17188 92.2266C2.58333 92.2266 2.01042 92.4766 1.45312 92.9766L0.492188 91.5703C1.26302 90.7995 2.23438 90.4141 3.40625 90.4141C4.36979 90.4141 5.1224 90.6589 5.66406 91.1484C6.20573 91.6328 6.47656 92.2995 6.47656 93.1484ZM12.1125 94.8516C12.9719 94.8516 13.6542 95.151 14.1594 95.75C14.6698 96.349 14.925 97.1693 14.925 98.2109C14.925 99.4557 14.6073 100.424 13.9719 101.117C13.3417 101.81 12.4641 102.156 11.3391 102.156C10.3391 102.156 9.52917 101.966 8.90938 101.586V99.6016C9.175 99.7943 9.51615 99.9661 9.93281 100.117C10.3547 100.263 10.7453 100.336 11.1047 100.336C12.2245 100.336 12.7844 99.6849 12.7844 98.3828C12.7844 97.1693 12.2401 96.5625 11.1516 96.5625C10.7193 96.5625 10.2609 96.6458 9.77656 96.8125L9.08906 96.3047L9.44063 90.5781H14.3156V92.4766H11.2609L11.1047 94.9453C11.3964 94.8828 11.7323 94.8516 12.1125 94.8516ZM23.2406 96.2891C23.2406 98.3568 22.9906 99.8516 22.4906 100.773C21.9958 101.695 21.1964 102.156 20.0922 102.156C18.988 102.156 18.1938 101.693 17.7094 100.766C17.2302 99.8385 16.9906 98.3464 16.9906 96.2891C16.9906 94.2266 17.2432 92.7292 17.7484 91.7969C18.2536 90.8646 19.0453 90.3984 20.1234 90.3984C21.2224 90.3984 22.0167 90.8542 22.5063 91.7656C22.9958 92.6771 23.2406 94.1849 23.2406 96.2891ZM19.1156 96.2891C19.1156 97.888 19.1833 98.9661 19.3188 99.5234C19.4594 100.076 19.7224 100.352 20.1078 100.352C20.3682 100.352 20.5688 100.232 20.7094 99.9922C20.8552 99.7526 20.9594 99.3568 21.0219 98.8047C21.0844 98.2474 21.1156 97.4089 21.1156 96.2891C21.1156 94.7161 21.0427 93.6432 20.8969 93.0703C20.751 92.4974 20.488 92.2109 20.1078 92.2109C19.7224 92.2109 19.4594 92.4974 19.3188 93.0703C19.1833 93.638 19.1156 94.7109 19.1156 96.2891Z" fill="#D1A954"/>
<path d="M36.5594 102H34.4734V94.9766H33.3094C33.2052 96.7422 33.0359 98.1432 32.8016 99.1797C32.5724 100.216 32.2625 100.969 31.8719 101.438C31.4865 101.906 30.9734 102.141 30.3328 102.141C29.9422 102.141 29.6219 102.083 29.3719 101.969V100.258C29.5281 100.31 29.687 100.336 29.8484 100.336C30.2859 100.336 30.6271 99.7786 30.8719 98.6641C31.1167 97.5443 31.3042 95.7552 31.4344 93.2969H36.5594V102ZM42.3281 102.156C41.2396 102.156 40.3802 101.771 39.75 101C39.125 100.224 38.8125 99.1276 38.8125 97.7109C38.8125 96.2734 39.0964 95.151 39.6641 94.3438C40.2318 93.5365 41.0234 93.1328 42.0391 93.1328C42.987 93.1328 43.7344 93.4792 44.2812 94.1719C44.8281 94.8594 45.1016 95.8255 45.1016 97.0703V98.1797H40.9219C40.9375 98.9557 41.0964 99.5339 41.3984 99.9141C41.7005 100.289 42.1172 100.477 42.6484 100.477C43.3255 100.477 44.0182 100.266 44.7266 99.8438V101.555C44.0599 101.956 43.2604 102.156 42.3281 102.156ZM42.0234 94.7344C41.7266 94.7344 41.4818 94.8932 41.2891 95.2109C41.0964 95.5234 40.9844 96.0104 40.9531 96.6719H43.0625C43.0521 96.0365 42.9557 95.5547 42.7734 95.2266C42.5911 94.8984 42.3411 94.7344 42.0234 94.7344ZM52.6359 93.2969V94.9766H50.6984V102H48.6203V94.9766H46.6828V93.2969H52.6359ZM61.2906 93.2969V97.3281C61.2906 97.8281 61.2281 98.6589 61.1031 99.8203L63.9313 93.2969H66.4781V102H64.5406V97.9062C64.5406 97.2917 64.6005 96.4635 64.7203 95.4219L61.8844 102H59.3609V93.2969H61.2906ZM71.9266 102.156C70.8901 102.156 70.101 101.779 69.5594 101.023C69.0177 100.268 68.7469 99.1589 68.7469 97.6953C68.7469 96.1641 69.0021 95.0208 69.5125 94.2656C70.0281 93.5104 70.8224 93.1328 71.8953 93.1328C72.2182 93.1328 72.5568 93.1797 72.9109 93.2734C73.2651 93.3672 73.5828 93.5026 73.8641 93.6797L73.2703 95.2969C72.838 95.0417 72.4552 94.9141 72.1219 94.9141C71.6792 94.9141 71.3589 95.1458 71.1609 95.6094C70.9682 96.0677 70.8719 96.7578 70.8719 97.6797C70.8719 98.5807 70.9682 99.2552 71.1609 99.7031C71.3536 100.146 71.6687 100.367 72.1062 100.367C72.6271 100.367 73.1714 100.185 73.7391 99.8203V101.648C73.1922 101.987 72.588 102.156 71.9266 102.156ZM81.1484 93.2969V94.9766H79.2109V102H77.1328V94.9766H75.1953V93.2969H81.1484ZM89.3156 97.6328C89.3156 99.0599 89.0135 100.172 88.4094 100.969C87.8052 101.76 86.9771 102.156 85.925 102.156C85.2583 102.156 84.6698 101.974 84.1594 101.609C83.649 101.245 83.2557 100.721 82.9797 100.039C82.7036 99.3516 82.5656 98.5495 82.5656 97.6328C82.5656 96.2214 82.8651 95.1198 83.4641 94.3281C84.063 93.5312 84.8938 93.1328 85.9563 93.1328C86.9823 93.1328 87.7974 93.5391 88.4016 94.3516C89.0109 95.1589 89.3156 96.2526 89.3156 97.6328ZM84.6906 97.6328C84.6906 98.5391 84.7896 99.224 84.9875 99.6875C85.1854 100.151 85.5031 100.383 85.9406 100.383C86.774 100.383 87.1906 99.4661 87.1906 97.6328C87.1906 96.7214 87.0891 96.0417 86.8859 95.5938C86.688 95.1406 86.3729 94.9141 85.9406 94.9141C85.5031 94.9141 85.1854 95.1406 84.9875 95.5938C84.7896 96.0417 84.6906 96.7214 84.6906 97.6328ZM95.4594 102.156C95.0844 102.156 94.751 102.073 94.4594 101.906C94.1729 101.734 93.9047 101.435 93.6547 101.008H93.5453C93.6286 101.716 93.6703 102.143 93.6703 102.289V105.844H91.5766V93.2969H93.1859L93.5453 94.4297H93.6391C94.0714 93.5651 94.699 93.1328 95.5219 93.1328C96.3135 93.1328 96.9333 93.526 97.3812 94.3125C97.8292 95.0938 98.0531 96.2005 98.0531 97.6328C98.0531 99.0443 97.8214 100.151 97.3578 100.953C96.8943 101.755 96.2615 102.156 95.4594 102.156ZM94.8187 94.8984C94.4125 94.8984 94.1182 95.0885 93.9359 95.4688C93.7589 95.8438 93.6651 96.4688 93.6547 97.3438V97.6172C93.6547 98.5755 93.7458 99.2734 93.9281 99.7109C94.1104 100.148 94.4125 100.367 94.8344 100.367C95.5635 100.367 95.9281 99.4453 95.9281 97.6016C95.9281 96.6953 95.837 96.0182 95.6547 95.5703C95.4776 95.1224 95.199 94.8984 94.8187 94.8984ZM102.244 93.2969V97.3281C102.244 97.8281 102.181 98.6589 102.056 99.8203L104.884 93.2969H107.431V102H105.494V97.9062C105.494 97.2917 105.554 96.4635 105.673 95.4219L102.838 102H100.314V93.2969H102.244ZM111.934 93.2969V97.3281C111.934 97.8281 111.872 98.6589 111.747 99.8203L114.575 93.2969H117.122V102H115.184V97.9062C115.184 97.2917 115.244 96.4635 115.364 95.4219L112.528 102H110.005V93.2969H111.934Z" fill="white"/>
<path d="M68.927 33.6411V3.93562C68.927 3.36851 68.4674 2.90872 67.9001 2.90872H2.1C1.53276 2.90872 1.07311 3.36851 1.07311 3.93562V33.6412C0.435723 33.9787 0 34.648 0 35.418V37.5258C0 38.2958 0.435723 38.9654 1.07311 39.3028V66.0643C1.07311 66.6314 1.53289 67.0912 2.1 67.0912H6.7654H11.3462H11.6569H23.1602H34.9745H46.7887H58.3432H58.6027H63.2346H67.9C68.4672 67.0912 68.9269 66.6314 68.9269 66.0643V39.3028C69.5643 38.9652 70 38.2958 70 37.5258V35.418C70.0001 34.648 69.5644 33.9787 68.927 33.6411ZM66.4858 4.96265C66.0744 5.5675 65.3151 6.27597 64.113 7.03094C64.0983 7.04023 64.0832 7.04939 64.0684 7.05869C63.9987 7.10217 63.9271 7.14578 63.8545 7.18953C63.8213 7.20949 63.788 7.22932 63.7544 7.24928C63.6992 7.28209 63.6424 7.3149 63.5854 7.34785C63.5395 7.37438 63.4937 7.4009 63.4466 7.42756C63.4015 7.45313 63.3549 7.47883 63.3087 7.50439C63.2513 7.53625 63.1945 7.56811 63.1356 7.6001C63.1254 7.6057 63.1146 7.61131 63.1043 7.61678C62.9556 7.69717 62.8015 7.77756 62.6434 7.85822C62.6009 7.87996 62.5592 7.90156 62.5159 7.92317C62.4553 7.95365 62.393 7.98401 62.3312 8.01449C62.2743 8.04238 62.2175 8.07041 62.1594 8.0983C62.1039 8.1251 62.0476 8.15176 61.9911 8.17856C61.919 8.21274 61.8459 8.24692 61.7718 8.2811C61.726 8.30229 61.6801 8.32348 61.6336 8.34467C61.5326 8.39074 61.4298 8.43682 61.3253 8.48289C61.3026 8.49301 61.2803 8.50299 61.2574 8.51311C60.8375 8.69713 60.3908 8.8817 59.9153 9.06614C59.9152 9.06614 59.9152 9.06627 59.9151 9.06627C59.3004 9.30471 58.644 9.54069 57.9421 9.77256C56.0422 10.4 53.9944 10.9436 51.8391 11.3995C51.8049 11.4032 51.7707 11.4083 51.7364 11.4155C49.6913 11.8434 47.5388 12.1952 45.3389 12.4613C45.3111 12.4647 45.2839 12.4704 45.2566 12.4759C41.9447 12.8709 38.4897 13.0772 35.0001 13.0772C31.5105 13.0772 28.0553 12.871 24.7434 12.4762C24.7162 12.4706 24.6891 12.4648 24.6614 12.4616C22.4605 12.1954 20.3081 11.8436 18.2639 11.4158C18.2296 11.4085 18.1954 11.4035 18.1612 11.3998C16.0058 10.9438 13.9581 10.4002 12.0582 9.77284C11.3563 9.5411 10.6998 9.30498 10.0852 9.06655C10.0851 9.06655 10.0849 9.06641 10.0849 9.06641C9.60957 8.88211 9.16291 8.69754 8.74318 8.51352C8.72008 8.5034 8.69752 8.49315 8.67455 8.48303C8.57023 8.43696 8.46769 8.39102 8.36679 8.34508C8.32031 8.32389 8.27437 8.3027 8.22857 8.28151C8.15447 8.24733 8.08146 8.21301 8.00927 8.17897C7.95281 8.15217 7.89648 8.12551 7.84097 8.09871C7.78287 8.07068 7.72613 8.04279 7.66925 8.0149C7.60732 7.98442 7.54511 7.95406 7.48455 7.92358C7.44134 7.90184 7.39951 7.88024 7.35699 7.85863C7.20058 7.77893 7.048 7.69922 6.90062 7.61965C6.88872 7.61322 6.87628 7.6068 6.86453 7.60037C6.80587 7.56865 6.74941 7.53693 6.69226 7.50508C6.64591 7.47938 6.59902 7.45354 6.55376 7.42783C6.50673 7.40117 6.46093 7.37465 6.41499 7.34813C6.35798 7.31518 6.30138 7.28236 6.24601 7.24955C6.21224 7.22959 6.17902 7.20963 6.14593 7.1898C6.0732 7.14605 6.00169 7.10244 5.93196 7.05896C5.91706 7.04967 5.90216 7.04051 5.88739 7.03121C4.68522 6.27611 3.92589 5.5675 3.5145 4.96279H66.4858V4.96265ZM3.1269 7.56893C3.44327 7.84277 3.80626 8.12168 4.21765 8.40414C5.3088 9.15911 6.76308 9.94442 8.69369 10.7286C8.69219 17.18 6.81066 24.3591 5.20052 29.3211C5.02552 29.8606 5.32083 30.4398 5.86046 30.6148C6.39913 30.7896 6.97896 30.4944 7.15423 29.955C8.74783 25.0439 10.5982 18.0067 10.738 11.494C10.9588 11.5704 11.1833 11.6468 11.4141 11.723C13.0885 12.2759 14.872 12.7662 16.7399 13.1905C14.5695 19.9248 11.0308 25.4767 8.37855 29.0141C8.03839 29.4679 8.13041 30.1116 8.58418 30.4517C8.76888 30.5902 8.98504 30.6571 9.19941 30.6571C9.51168 30.6571 9.82012 30.5152 10.0219 30.2461C12.7962 26.5458 16.5094 20.7135 18.761 13.6174C20.1754 13.8944 21.6307 14.1349 23.117 14.3379C20.9417 19.6675 16.5899 25.157 13.2013 28.9372C12.8227 29.3595 12.8582 30.0088 13.2806 30.3873C13.7031 30.766 14.3522 30.7304 14.7308 30.3082C21.049 23.2599 23.9186 17.9773 25.2219 14.5974C28.3948 14.9482 31.6837 15.1309 34.9999 15.1309C38.3165 15.1309 41.6055 14.9482 44.7785 14.5974C46.9989 20.3725 51.6693 26.2934 55.278 30.3183C55.6564 30.7405 56.3057 30.7759 56.7281 30.3973C57.1505 30.0187 57.1859 29.3695 56.8072 28.9471C53.4154 25.1644 49.0594 19.6705 46.8829 14.338C48.3693 14.1351 49.8245 13.8946 51.2389 13.6175C53.4932 20.7221 57.2125 26.5603 59.9916 30.2643C60.1934 30.5332 60.5016 30.675 60.8138 30.675C61.0284 30.675 61.2447 30.608 61.4294 30.4694C61.883 30.1289 61.9749 29.4853 61.6344 29.0316C58.9776 25.4906 55.433 19.9328 53.26 13.1904C55.1277 12.766 56.9113 12.2758 58.5857 11.7229C58.8165 11.6467 59.041 11.5703 59.2618 11.4939C59.4017 18.0032 61.2501 25.0359 62.8421 29.9437C63.0171 30.4833 63.5964 30.7783 64.1358 30.6038C64.6752 30.4288 64.9708 29.8495 64.7958 29.31C63.1873 24.3512 61.3078 17.1767 61.3063 10.7285C63.2369 9.94428 64.6912 9.15897 65.7824 8.40401C66.1937 8.12154 66.5569 7.84277 66.8731 7.56879V33.4077H61.1766C60.0682 33.4077 59.1664 34.3095 59.1664 35.4179V37.5257C59.1664 38.0719 59.3861 38.5672 59.7409 38.9299C59.1191 40.8199 58.3778 43.1923 57.6673 45.7621H12.333C11.6223 43.1923 10.8809 40.8195 10.2593 38.9299C10.614 38.5672 10.8338 38.0719 10.8338 37.5257V35.4179C10.8338 34.3095 9.93195 33.4077 8.82357 33.4077H3.1269V7.56893ZM2.05393 37.4821V35.4618H8.77982V37.4821H4.87663H2.1H2.05393ZM7.33785 64.703C7.22423 64.9093 7.00494 65.0374 6.7654 65.0374H3.1269V39.536H4.11073C7.85109 52.1993 9.05832 61.5788 7.33785 64.703ZM12.3731 65.0374V59.3692C12.3731 58.1487 13.3661 57.1557 14.5866 57.1557H19.92C21.1405 57.1557 22.1333 58.1487 22.1333 59.3692V65.0374H12.3731ZM24.1872 65.0374V59.3692C24.1872 58.1487 25.1802 57.1557 26.4007 57.1557H31.734C32.9546 57.1557 33.9475 58.1487 33.9475 59.3692V65.0374H24.1872ZM36.0015 65.0374V59.3692C36.0015 58.1487 36.9945 57.1557 38.2149 57.1557H43.5482C44.7688 57.1557 45.7616 58.1487 45.7616 59.3692V65.0374H36.0015ZM57.5758 65.0374H47.8156V59.3692C47.8156 58.1487 48.8086 57.1557 50.029 57.1557H55.3623C56.5828 57.1557 57.5758 58.1487 57.5758 59.3692V65.0374ZM59.6297 65.0373V59.3692C59.6297 57.0161 57.7154 55.1018 55.3625 55.1018H50.0292C48.7336 55.1018 47.5721 55.6828 46.7887 56.5972C46.0054 55.6828 44.8437 55.1018 43.5482 55.1018H38.2149C36.9195 55.1018 35.7578 55.6828 34.9745 56.5971C34.1912 55.6828 33.0295 55.1018 31.734 55.1018H26.4007C25.1053 55.1018 23.9436 55.6828 23.1602 56.5971C22.3769 55.6828 21.2152 55.1018 19.9198 55.1018H14.5866C12.2335 55.1018 10.3191 57.0161 10.3191 59.3692V65.0374H9.44182C11.5232 59.7769 8.54904 47.4247 6.25107 39.536H8.29652C9.26681 42.4829 10.5367 46.6323 11.5096 50.8458C11.6371 51.3984 12.1885 51.743 12.7413 51.6154C13.2939 51.4879 13.6384 50.9365 13.5108 50.3837C13.3118 49.5217 13.1007 48.6628 12.8823 47.8161H57.1181C56.8975 48.671 56.6844 49.5385 56.4837 50.4091C56.3563 50.9618 56.7009 51.5132 57.2537 51.6406C57.3313 51.6585 57.4089 51.6671 57.4854 51.6671C57.9529 51.6671 58.3756 51.3458 58.4853 50.8707C59.4591 46.6479 60.7315 42.489 61.7039 39.5359H63.7493C61.4514 47.4246 58.4772 59.7767 60.5586 65.0373H59.6297V65.0373ZM66.8732 65.0374H63.2349C62.9953 65.0374 62.776 64.9093 62.6624 64.703C60.942 61.579 62.1492 52.1993 65.8894 39.536H66.8732V65.0374ZM67.9462 37.4821H67.9001H65.1235H61.2203V35.4618H67.9462V37.4821Z" fill="white"/>
</svg>
